<svg id="Camada_1" data-name="Camada 1" xmlns="http://www.w3.org/2000/svg" viewBox="0 0 1000 1000">
  <defs>
    <style>
      .cls-1 {
        fill: #a157bc;
        stroke-width: 0px;
      }
    </style>
  </defs>
  <path class="cls-1" d="M830.11,258.91c-41.12-33.7-47.98-53.12-47.98-53.12-79.39-55.4-155.93,0-155.93,0-61.69,9.71-90.25,29.7-90.25,29.7,39.41,5.14,76.54,27.42,76.54,27.42,61.79,39.73,43.41,79.96,43.41,79.96-130.23,55.98-279.88,199.91-292.73,230.76-12.85,30.84-52.26,49.69-52.26,49.69,0,0-182.49,83.96-253.6,157.65-71.11,73.68,21.42,17.14,21.42,17.14-17.99,48.84,44.55-6.85,44.55-6.85-15.42,28.27-6,43.7,40.27-6.4,46.27-50.09,191.92-107.27,191.92-107.27,53.69,5.71,86.82-9.14,86.82-9.14,58.26,17.14,75.4,49.69,75.4,49.69-.57,23.42,20.56,22.28,20.56,22.28l64.54,44.44c.36,2.96,1.4,6.02,2.81,8.99h-240.87c-6.9,0-12.5,5.59-12.5,12.5h0c0,6.9,5.59,12.5,12.5,12.5h592.35c6.9,0,12.5-5.59,12.5-12.5h0c0-6.9-5.59-12.5-12.5-12.5h-102.07l30-17.32c5.98-3.45,8.02-11.09,4.57-17.07h0c-3.45-5.98-11.09-8.02-17.07-4.57l-67.48,38.96h-152.17c-6.84-17.12-25.51-24.87-25.51-24.87-29.13-21.7-58.55-54.83-58.55-54.83,0,0,222.76-33.41,304.15-179.06,81.39-145.65-1.71-242.47-42.84-276.16ZM552.51,231.55s28.3-15.8,66.81-17.77c0,0-20.08,9.22-66.81,17.77ZM873.59,759.78c-19.42,18.43-48.71,27.65-48.71,27.65,22.38-15.47,48.71-27.65,48.71-27.65ZM956.73,798.29c-62.53,9.22-295.28,0-295.28,0,52-2.96,295.28,0,295.28,0ZM622.94,769.41s-28.14-8.39-48.38-41.72c0,0,21.01,22.39,48.38,41.72ZM633.14,362.54c-79.65,48.71-164.24,121.11-164.24,121.11,72.72-80.3,164.24-121.11,164.24-121.11ZM126.31,796.97s78.99-92.81,224.46-168.51c0,0-103.34,56.61-224.46,168.51ZM83.52,796.97s86.23-94.13,282.38-182.99c0,0-136.91,65.16-282.38,182.99ZM66.41,782.49s79.65-84.91,312.66-182.33c0,0-173.77,81.62-312.66,182.33ZM370.28,584.04c-.06,0-.1,0-.1,0,.03,0,.07,0,.1,0,5.76.2,285.43,9.06,304-163.9,0,0,44.42,177.69-304,163.9ZM653.55,396.44c32.58-57.27,13.82-97.75,13.82-97.75,33.08,49.86-13.82,97.75-13.82,97.75ZM687.61,234.02c-7.36,0-13.33-5.97-13.33-13.33s5.97-13.33,13.33-13.33,13.33,5.97,13.33,13.33-5.97,13.33-13.33,13.33ZM678.23,188.77s46.73-9.87,85.57,14.48c0,0-35.87-13.49-85.57-14.48ZM849.04,557.38s83.92-139.22-7.9-269.54c0,0,117.49,103.67,7.9,269.54Z"/>
</svg>